<svg viewBox="0 0 800 600" xmlns="http://www.w3.org/2000/svg">
  <!-- User Profile Microservice Architecture -->
  <defs>
    <style>
      text {
        font-family: Arial, sans-serif;
        font-size: 14px;
      }
      .title {
        font-size: 20px;
        font-weight: bold;
      }
      .subtitle {
        font-size: 16px;
        font-style: italic;
      }
      .label {
        font-size: 12px;
      }
      .highlight {
        fill: #4285F4;
      }
    </style>
  </defs>

  <!-- Background -->
  <rect width="800" height="600" fill="#f8f9fa" rx="10" ry="10" />
  
  <!-- Title -->
  <text x="400" y="40" text-anchor="middle" class="title">User Profile Microservice Implementation</text>
  <text x="400" y="65" text-anchor="middle" class="subtitle">Architecture Overview</text>

  <!-- Client Section -->
  <rect x="50" y="100" width="120" height="60" fill="#E1F5FE" stroke="#0288D1" stroke-width="2" rx="5" ry="5" />
  <text x="110" y="130" text-anchor="middle">Client Application</text>
  <text x="110" y="150" text-anchor="middle" class="label">(Browser/Mobile App)</text>

  <!-- API Gateway -->
  <rect x="280" y="100" width="120" height="60" fill="#E8F5E9" stroke="#388E3C" stroke-width="2" rx="5" ry="5" />
  <text x="340" y="130" text-anchor="middle">API Gateway</text>
  <text x="340" y="150" text-anchor="middle" class="label">(Future Component)</text>

  <!-- User Service -->
  <rect x="280" y="230" width="120" height="60" fill="#FFF8E1" stroke="#FFA000" stroke-width="3" rx="5" ry="5" />
  <text x="340" y="260" text-anchor="middle" class="highlight">User Profile</text>
  <text x="340" y="280" text-anchor="middle" class="label">Microservice</text>

  <!-- Other Services -->
  <rect x="130" y="230" width="120" height="60" fill="#F3E5F5" stroke="#7B1FA2" stroke-width="2" rx="5" ry="5" opacity="0.6" />
  <text x="190" y="260" text-anchor="middle">Product Service</text>
  <text x="190" y="280" text-anchor="middle" class="label">(Future Component)</text>

  <rect x="430" y="230" width="120" height="60" fill="#F3E5F5" stroke="#7B1FA2" stroke-width="2" rx="5" ry="5" opacity="0.6" />
  <text x="490" y="260" text-anchor="middle">Order Service</text>
  <text x="490" y="280" text-anchor="middle" class="label">(Future Component)</text>

  <!-- User Database -->
  <ellipse cx="340" cy="360" rx="70" ry="40" fill="#E8EAF6" stroke="#3949AB" stroke-width="2" />
  <text x="340" y="365" text-anchor="middle">User Database</text>

  <!-- Internals -->
  <rect x="240" y="460" width="200" height="100" fill="#FFFFFF" stroke="#455A64" stroke-width="2" rx="5" ry="5" />
  <text x="340" y="480" text-anchor="middle" font-weight="bold">Microservice Internals</text>
  
  <rect x="250" y="490" width="80" height="25" fill="#E3F2FD" stroke="#1976D2" stroke-width="1" rx="3" ry="3" />
  <text x="290" y="507" text-anchor="middle" font-size="12">Controllers</text>
  
  <rect x="350" y="490" width="80" height="25" fill="#E3F2FD" stroke="#1976D2" stroke-width="1" rx="3" ry="3" />
  <text x="390" y="507" text-anchor="middle" font-size="12">Services</text>
  
  <rect x="250" y="525" width="80" height="25" fill="#E3F2FD" stroke="#1976D2" stroke-width="1" rx="3" ry="3" />
  <text x="290" y="542" text-anchor="middle" font-size="12">Models</text>
  
  <rect x="350" y="525" width="80" height="25" fill="#E3F2FD" stroke="#1976D2" stroke-width="1" rx="3" ry="3" />
  <text x="390" y="542" text-anchor="middle" font-size="12">Middleware</text>

  <!-- API Endpoints -->
  <rect x="500" y="460" width="250" height="100" fill="#FFFFFF" stroke="#455A64" stroke-width="2" rx="5" ry="5" />
  <text x="625" y="480" text-anchor="middle" font-weight="bold">API Endpoints</text>
  
  <rect x="510" y="490" width="110" height="25" fill="#F1F8E9" stroke="#689F38" stroke-width="1" rx="3" ry="3" />
  <text x="565" y="507" text-anchor="middle" font-size="12">POST /users</text>
  
  <rect x="630" y="490" width="110" height="25" fill="#F1F8E9" stroke="#689F38" stroke-width="1" rx="3" ry="3" />
  <text x="685" y="507" text-anchor="middle" font-size="12">GET /users/{id}</text>
  
  <rect x="510" y="525" width="110" height="25" fill="#F1F8E9" stroke="#689F38" stroke-width="1" rx="3" ry="3" />
  <text x="565" y="542" text-anchor="middle" font-size="12">PUT /users/{id}</text>
  
  <rect x="630" y="525" width="110" height="25" fill="#F1F8E9" stroke="#689F38" stroke-width="1" rx="3" ry="3" />
  <text x="685" y="542" text-anchor="middle" font-size="12">POST /auth/login</text>

  <!-- Arrows -->
  <line x1="170" y1="130" x2="280" y2="130" stroke="#455A64" stroke-width="2" marker-end="url(#arrowhead)" />
  <line x1="340" y1="160" x2="340" y2="230" stroke="#455A64" stroke-width="2" marker-end="url(#arrowhead)" />
  <line x1="340" y1="290" x2="340" y2="320" stroke="#455A64" stroke-width="2" marker-end="url(#arrowhead)" />
  
  <line x1="190" y1="290" x2="240" y2="340" stroke="#455A64" stroke-width="1.5" stroke-dasharray="5,5" marker-end="url(#arrowhead)" />
  <line x1="490" y1="290" x2="440" y2="340" stroke="#455A64" stroke-width="1.5" stroke-dasharray="5,5" marker-end="url(#arrowhead)" />

  <!-- Arrow Marker -->
  <defs>
    <marker id="arrowhead" markerWidth="10" markerHeight="7" refX="9" refY="3.5" orient="auto">
      <polygon points="0 0, 10 3.5, 0 7" fill="#455A64" />
    </marker>
  </defs>
</svg>